<?xml version="1.0"?>
<svg xmlns="http://www.w3.org/2000/svg" viewBox="0 0 64 64" width="512" height="512"><title>inventory-store-Boxes-storage-product</title><g id="Flat"><rect x="15" y="13" width="34" height="48" style="fill:#8c6239"/><rect x="13" y="9" width="38" height="6" style="fill:#754c24"/><rect x="28" y="9" width="8" height="6" style="fill:#c69c6d"/><rect x="28" y="15" width="8" height="6" style="fill:#a67c52"/><rect x="27" y="31" width="30" height="30" style="fill:#c69c6d"/><rect x="25" y="25" width="34" height="6" style="fill:#a67c52"/><rect x="38" y="25" width="8" height="6" style="fill:#754c24"/><rect x="38" y="31" width="8" height="6" style="fill:#a67c52"/><rect x="52" y="56" width="2" height="2" style="fill:#a67c52"/><rect x="48" y="56" width="2" height="2" style="fill:#a67c52"/><rect x="7" y="47" width="30" height="14" style="fill:#8c6239"/><rect x="5" y="41" width="34" height="6" style="fill:#754c24"/><rect x="18" y="41" width="8" height="6" style="fill:#c69c6d"/><rect x="18" y="47" width="8" height="6" style="fill:#a67c52"/><rect x="32" y="56" width="2" height="2" style="fill:#c69c6d"/><rect x="28" y="56" width="2" height="2" style="fill:#c69c6d"/><rect x="60" y="38" width="2" height="15" style="fill:#ccc"/><rect x="2" y="60" width="60" height="2" style="fill:#754c24"/><rect x="10" y="19" width="2" height="16" style="fill:#ccc"/><rect x="23" y="4" width="22" height="2" style="fill:#ccc"/><rect x="47" y="4" width="2" height="2" style="fill:#ccc"/></g></svg>
